<svg width="56" height="61" viewBox="0 0 56 61" fill="inherit" xmlns="http://www.w3.org/2000/svg">
    <path fillRule="evenodd" clipRule="evenodd" d="M6.41663 9.5415C5.38109 9.5415 4.54163 10.381 4.54163 11.4165C4.54163 12.452 5.38109 13.2915 6.41663 13.2915H10.786L11.5976 16.5379L15.7155 33.0095C13.3252 33.5552 11.5416 35.6942 11.5416 38.2498C11.5416 41.2184 13.9481 43.6248 16.9166 43.6248H43.75C44.7855 43.6248 45.625 42.7854 45.625 41.7498C45.625 40.7143 44.7855 39.8748 43.75 39.8748H16.9166C16.0192 39.8748 15.2916 39.1473 15.2916 38.2498C15.2916 37.3524 16.0192 36.6248 16.9166 36.6248H18.0833H43.75C44.6103 36.6248 45.3603 36.0393 45.569 35.2046L50.2356 16.5379C50.3757 15.9778 50.2498 15.3844 49.8945 14.9293C49.5392 14.4742 48.994 14.2082 48.4166 14.2082H14.8806L14.069 10.9617C13.8603 10.1271 13.1103 9.5415 12.25 9.5415H6.41663ZM18.0833 46.8748C15.7591 46.8748 13.875 48.759 13.875 51.0832C13.875 53.4074 15.7591 55.2915 18.0833 55.2915C20.4075 55.2915 22.2916 53.4074 22.2916 51.0832C22.2916 48.759 20.4075 46.8748 18.0833 46.8748ZM41.4166 46.8748C39.0924 46.8748 37.2083 48.759 37.2083 51.0832C37.2083 53.4074 39.0924 55.2915 41.4166 55.2915C43.7408 55.2915 45.625 53.4074 45.625 51.0832C45.625 48.759 43.7408 46.8748 41.4166 46.8748Z" fill="inherit"/>
    <circle cx="43" cy="12" r="12" fill="#6FCF97"/>
    <rect x="41" y="4" width="4" height="16" rx="2" fill="#F2F2F2"/>
    <rect x="35" y="14" width="4" height="16" rx="2" transform="rotate(-90 35 14)" fill="#F2F2F2"/>
</svg>
