<svg width="257" height="257" viewBox="0 0 257 257" fill="none" xmlns="http://www.w3.org/2000/svg">
<path fillRule="evenodd" clipRule="evenodd" d="M29.448 27.5728C28.4125 27.5728 27.573 28.4122 27.573 29.4478C27.573 30.4833 28.4125 31.3228 29.448 31.3228H54.7549L59.754 51.3192L80.5882 134.656H77.6355C67.7289 134.656 59.698 142.687 59.698 152.594C59.698 162.5 67.7289 170.531 77.6355 170.531H200.781C201.817 170.531 202.656 169.692 202.656 168.656C202.656 167.621 201.817 166.781 200.781 166.781H77.6355C69.8 166.781 63.448 160.429 63.448 152.594C63.448 144.758 69.8 138.406 77.6355 138.406H82.9897H200.781C201.642 138.406 202.392 137.821 202.6 136.986L224.017 51.3192C224.157 50.759 224.031 50.1656 223.676 49.7105C223.321 49.2554 222.775 48.9894 222.198 48.9894H63.037L58.0378 28.993C57.8292 28.1583 57.0792 27.5728 56.2188 27.5728H29.448ZM82.9897 198.906C76.0401 198.906 70.4063 204.54 70.4063 211.489C70.4063 218.439 76.0401 224.073 82.9897 224.073C89.9392 224.073 95.573 218.439 95.573 211.489C95.573 204.54 89.9392 198.906 82.9897 198.906ZM190.073 198.906C183.123 198.906 177.49 204.54 177.49 211.489C177.49 218.439 183.123 224.073 190.073 224.073C197.023 224.073 202.656 218.439 202.656 211.489C202.656 204.54 197.023 198.906 190.073 198.906Z" fill="#333333"/>
</svg>
