<svg width="56" height="59" viewBox="0 0 56 59" fill="none" xmlns="http://www.w3.org/2000/svg">
<path fillRule="evenodd" clipRule="evenodd" d="M6.4165 7.5415C5.38097 7.5415 4.5415 8.38097 4.5415 9.4165C4.5415 10.452 5.38097 11.2915 6.4165 11.2915H10.7859L11.5975 14.5379L15.7154 31.0095C13.3251 31.5552 11.5415 33.6942 11.5415 36.2498C11.5415 39.2184 13.948 41.6248 16.9165 41.6248H43.7498C44.7854 41.6248 45.6248 40.7854 45.6248 39.7498C45.6248 38.7143 44.7854 37.8748 43.7498 37.8748H16.9165C16.019 37.8748 15.2915 37.1473 15.2915 36.2498C15.2915 35.3524 16.019 34.6248 16.9165 34.6248H18.0832H43.7498C44.6102 34.6248 45.3602 34.0393 45.5689 33.2046L50.2355 14.5379C50.3756 13.9778 50.2497 13.3844 49.8944 12.9293C49.5391 12.4742 48.9939 12.2082 48.4165 12.2082H14.8805L14.0689 8.96175C13.8602 8.12706 13.1102 7.5415 12.2498 7.5415H6.4165ZM18.0832 44.8748C15.759 44.8748 13.8748 46.759 13.8748 49.0832C13.8748 51.4074 15.759 53.2915 18.0832 53.2915C20.4074 53.2915 22.2915 51.4074 22.2915 49.0832C22.2915 46.759 20.4074 44.8748 18.0832 44.8748ZM41.4165 44.8748C39.0923 44.8748 37.2082 46.759 37.2082 49.0832C37.2082 51.4074 39.0923 53.2915 41.4165 53.2915C43.7407 53.2915 45.6248 51.4074 45.6248 49.0832C45.6248 46.759 43.7407 44.8748 41.4165 44.8748Z" fill="inherit"/>
<circle cx="44" cy="12" r="12" fill="#FF0000"/>
<rect x="36" y="14" width="4" height="16" rx="2" transform="rotate(-90 36 14)" fill="#F2F2F2"/>
</svg>
