<svg width="44" height="39" viewBox="0 0 44 39" fill="inherit" xmlns="http://www.w3.org/2000/svg">
<path d="M5.52875 22.1634L21.3153 36.9932C21.6398 37.298 21.802 37.4504 22 37.4504C22.198 37.4504 22.3602 37.298 22.6847 36.9932L38.4713 22.1634C39.9348 20.7885 40.6665 20.1011 41.1753 19.3939C43.1346 16.6705 43.4164 13.0833 41.9064 10.0873C41.5143 9.30933 40.8988 8.51609 39.6679 6.9296L38.993 6.05966L38.993 6.05961C37.7623 4.4734 37.1469 3.68029 36.6102 3.19883C33.0717 0.0246882 27.5624 0.617968 24.7809 4.4727C24.359 5.0574 23.9266 5.96334 23.0618 7.77524C22.927 8.05778 22.8595 8.19905 22.7997 8.27877C22.3997 8.81156 21.6003 8.81156 21.2003 8.27877C21.1405 8.19905 21.073 8.05778 20.9382 7.77524L20.9381 7.77517C20.0734 5.96332 19.641 5.05739 19.2191 4.4727C16.4376 0.617968 10.9283 0.0246882 7.38979 3.19883C6.85306 3.6803 6.23771 4.47342 5.007 6.05966L4.33205 6.92961C3.10115 8.51609 2.48571 9.30933 2.0936 10.0873C0.583592 13.0833 0.865387 16.6705 2.82469 19.3939C3.33347 20.1011 4.06523 20.7885 5.52875 22.1634Z" stroke="#FF0000" stroke-width="2"/>
</svg>
