<svg width="60" height="60" viewBox="0 0 60 60" fill="none" xmlns="http://www.w3.org/2000/svg">
<circle cx="30" cy="30" r="30" fill="inherit"/>
<circle cx="19.9998" cy="23.3333" r="3.58334" fill="#333333" stroke="#333333" stroke-width="0.5" stroke-linecap="round"/>
<circle cx="39.9998" cy="23.3333" r="3.58334" fill="#333333" stroke="#333333" stroke-width="0.5" stroke-linecap="round"/>
<mask id="path-4-outside-1_81_3707" maskUnits="userSpaceOnUse" x="14.856" y="37" width="31" height="15" fill="black">
<rect fill="white" x="14.856" y="37" width="31" height="15"/>
<path fill-rule="evenodd" clip-rule="evenodd" d="M17.3899 40C17.114 40 16.9761 40 16.901 40.0936C16.826 40.1872 16.855 40.3174 16.913 40.5778C18.1088 45.9472 23.5134 50 29.9998 50C36.4862 50 41.8908 45.9472 43.0866 40.5778C43.1446 40.3174 43.1736 40.1872 43.0985 40.0936C43.0235 40 42.8856 40 42.6097 40H17.3899Z"/>
</mask>
<path fill-rule="evenodd" clip-rule="evenodd" d="M17.3899 40C17.114 40 16.9761 40 16.901 40.0936C16.826 40.1872 16.855 40.3174 16.913 40.5778C18.1088 45.9472 23.5134 50 29.9998 50C36.4862 50 41.8908 45.9472 43.0866 40.5778C43.1446 40.3174 43.1736 40.1872 43.0985 40.0936C43.0235 40 42.8856 40 42.6097 40H17.3899Z" fill="inherit"/>
<path d="M43.0866 40.5778L41.1344 40.143L43.0866 40.5778ZM43.0985 40.0936L44.6589 38.8425L43.0985 40.0936ZM29.9998 48C24.2884 48 19.824 44.4485 18.8651 40.143L14.9608 41.0126C16.3936 47.4459 22.7384 52 29.9998 52V48ZM41.1344 40.143C40.1756 44.4485 35.7111 48 29.9998 48V52C37.2612 52 43.606 47.4459 45.0388 41.0126L41.1344 40.143ZM42.6097 38H17.3899V42H42.6097V38ZM45.0388 41.0126C45.0535 40.9465 45.1203 40.6721 45.1381 40.4061C45.1612 40.059 45.1286 39.4283 44.6589 38.8425L41.5382 41.3447C41.3631 41.1264 41.2481 40.8786 41.1897 40.6305C41.1364 40.4041 41.1413 40.2243 41.1469 40.1402C41.1524 40.058 41.1632 40.0086 41.1597 40.0266C41.1565 40.0431 41.1508 40.0697 41.1344 40.143L45.0388 41.0126ZM42.6097 42C42.6869 42 42.7171 42.0002 42.7366 42.0007C42.7579 42.0013 42.7113 42.0013 42.634 41.9898C42.5559 41.9781 42.3817 41.9458 42.1732 41.847C41.9435 41.7382 41.72 41.5715 41.5382 41.3447L44.6589 38.8425C44.1788 38.2437 43.5543 38.0828 43.2249 38.0336C42.9643 37.9947 42.6834 38 42.6097 38V42ZM18.8651 40.143C18.8488 40.0697 18.843 40.0431 18.8399 40.0266C18.8364 40.0086 18.8472 40.058 18.8527 40.1402C18.8583 40.2243 18.8632 40.4041 18.8099 40.6305C18.7514 40.8786 18.6365 41.1264 18.4614 41.3447L15.3407 38.8425C14.871 39.4283 14.8384 40.059 14.8615 40.4061C14.8792 40.6721 14.9461 40.9465 14.9608 41.0126L18.8651 40.143ZM17.3899 38C17.3162 38 17.0353 37.9947 16.7747 38.0336C16.4453 38.0828 15.8208 38.2437 15.3407 38.8425L18.4614 41.3447C18.2796 41.5715 18.0561 41.7382 17.8264 41.847C17.6179 41.9458 17.4436 41.9781 17.3656 41.9898C17.2883 42.0013 17.2416 42.0013 17.2629 42.0007C17.2825 42.0002 17.3127 42 17.3899 42V38Z" fill="#333333" mask="url(#path-4-outside-1_81_3707)"/>
</svg>
