<svg width="48" height="48" viewBox="0 0 48 48" fill="none" xmlns="http://www.w3.org/2000/svg">
<path d="M8 22C8 20.1144 8 19.1716 8.58579 18.5858C9.17157 18 10.1144 18 12 18H36C37.8856 18 38.8284 18 39.4142 18.5858C40 19.1716 40 20.1144 40 22V36C40 38.8284 40 40.2426 39.1213 41.1213C38.2426 42 36.8284 42 34 42H14C11.1716 42 9.75736 42 8.87868 41.1213C8 40.2426 8 38.8284 8 36V22Z" stroke="#F2F2F2" stroke-width="2"/>
<path d="M32 16V14C32 11.1997 32 9.79961 31.455 8.73005C30.9757 7.78924 30.2108 7.02433 29.27 6.54497C28.2004 6 26.8003 6 24 6V6C21.1997 6 19.7996 6 18.73 6.54497C17.7892 7.02433 17.0243 7.78924 16.545 8.73005C16 9.79961 16 11.1997 16 14V16" stroke="#F2F2F2" stroke-width="2" stroke-linecap="round"/>
<circle cx="24" cy="30" r="4" fill="#F2F2F2"/>
</svg>
