<svg width="48" height="48" viewBox="0 0 48 48" fill="none" xmlns="http://www.w3.org/2000/svg">
<path d="M18 12C18 12.7879 18.1552 13.5681 18.4567 14.2961C18.7583 15.0241 19.2002 15.6855 19.7574 16.2426C20.3145 16.7998 20.9759 17.2417 21.7039 17.5433C22.4319 17.8448 23.2121 18 24 18C24.7879 18 25.5681 17.8448 26.2961 17.5433C27.0241 17.2417 27.6855 16.7998 28.2426 16.2426C28.7998 15.6855 29.2417 15.0241 29.5433 14.2961C29.8448 13.5681 30 12.7879 30 12C30 11.2121 29.8448 10.4319 29.5433 9.7039C29.2417 8.97594 28.7998 8.31451 28.2426 7.75736C27.6855 7.20021 27.0241 6.75825 26.2961 6.45672C25.5681 6.15519 24.7879 6 24 6C23.2121 6 22.4318 6.1552 21.7039 6.45672C20.9759 6.75825 20.3145 7.20021 19.7574 7.75736C19.2002 8.31451 18.7582 8.97595 18.4567 9.7039C18.1552 10.4319 18 11.2121 18 12L18 12Z" stroke="#FFD600" stroke-width="2"/>
<path d="M8.87611 27.803C8.19375 28.197 7.59566 28.7215 7.11599 29.3466C6.63633 29.9717 6.28449 30.6852 6.08056 31.4462C5.87663 32.2073 5.8246 33.0011 5.92744 33.7823C6.03029 34.5635 6.286 35.3168 6.67996 35.9992C7.07393 36.6815 7.59844 37.2796 8.22355 37.7593C8.84865 38.2389 9.56212 38.5908 10.3232 38.7947C11.0843 38.9986 11.8781 39.0507 12.6593 38.9478C13.4405 38.845 14.1937 38.5893 14.8761 38.1953C15.5585 37.8013 16.1566 37.2768 16.6362 36.6517C17.1159 36.0266 17.4677 35.3132 17.6717 34.5521C17.8756 33.791 17.9276 32.9972 17.8248 32.216C17.7219 31.4348 17.4662 30.6815 17.0723 29.9992C16.6783 29.3168 16.1538 28.7187 15.5287 28.239C14.9036 27.7594 14.1901 27.4075 13.429 27.2036C12.6679 26.9997 11.8741 26.9476 11.093 27.0505C10.3118 27.1533 9.55848 27.409 8.87611 27.803L8.87611 27.803Z" stroke="#FFD600" stroke-width="2"/>
<path d="M39.1239 27.803C39.8063 28.197 40.4043 28.7215 40.884 29.3466C41.3637 29.9717 41.7155 30.6852 41.9194 31.4462C42.1234 32.2073 42.1754 33.0011 42.0726 33.7823C41.9697 34.5635 41.714 35.3168 41.32 35.9992C40.9261 36.6815 40.4016 37.2796 39.7765 37.7593C39.1513 38.2389 38.4379 38.5908 37.6768 38.7947C36.9157 38.9986 36.1219 39.0507 35.3407 38.9478C34.5595 38.845 33.8063 38.5893 33.1239 38.1953C32.4415 37.8013 31.8434 37.2768 31.3638 36.6517C30.8841 36.0266 30.5323 35.3132 30.3283 34.5521C30.1244 33.791 30.0724 32.9972 30.1752 32.216C30.2781 31.4348 30.5338 30.6815 30.9277 29.9992C31.3217 29.3168 31.8462 28.7187 32.4713 28.239C33.0964 27.7594 33.8099 27.4075 34.571 27.2036C35.3321 26.9997 36.1259 26.9476 36.907 27.0505C37.6882 27.1533 38.4415 27.409 39.1239 27.803L39.1239 27.803Z" stroke="#FFD600" stroke-width="2"/>
<path fill-rule="evenodd" clip-rule="evenodd" d="M18.0051 12.2507C18.0016 12.1674 17.9999 12.0841 17.9999 12.0006C17.9999 11.3059 18.1205 10.6172 18.3557 9.96495C18.066 10.0669 17.7788 10.1769 17.4944 10.2947C15.4318 11.149 13.5578 12.4012 11.9792 13.9798C10.4006 15.5584 9.14837 17.4325 8.29404 19.495C7.43972 21.5575 7 23.7682 7 26.0006C7 27.0529 7.0977 28.1003 7.29046 29.1297C7.73767 28.5999 8.27382 28.151 8.87549 27.8036C8.94777 27.7619 9.02084 27.7217 9.09466 27.6831C9.03173 27.1256 9 26.5639 9 26.0006C9 24.0308 9.38798 22.0803 10.1418 20.2604C10.8956 18.4405 12.0005 16.7869 13.3934 15.394C14.721 14.0664 16.2855 13.0004 18.0051 12.2507ZM29.9947 12.2506C31.7143 13.0003 33.2789 14.0663 34.6066 15.394C35.9995 16.7869 37.1044 18.4405 37.8582 20.2604C38.612 22.0802 39 24.0308 39 26.0006C39 26.5639 38.9683 27.1257 38.9053 27.6832C38.9791 27.7218 39.052 27.7619 39.1242 27.8036C39.726 28.1511 40.2622 28.6 40.7095 29.13C40.9023 28.1005 41 27.053 41 26.0006C41 23.7681 40.5603 21.5575 39.7059 19.495C38.8516 17.4325 37.5994 15.5584 36.0208 13.9798C34.4422 12.4012 32.5681 11.149 30.5056 10.2947C30.2211 10.1768 29.9338 10.0668 29.6439 9.96484C29.8792 10.6171 29.9999 11.3058 29.9999 12.0006C29.9999 12.084 29.9981 12.1674 29.9947 12.2506ZM35.0661 38.9057C34.3833 38.7834 33.7262 38.5435 33.1242 38.1959C33.0522 38.1543 32.9811 38.1113 32.911 38.0668C31.933 38.7891 30.8686 39.3914 29.7403 39.8588C27.9204 40.6126 25.9698 41.0006 24 41.0006C22.0302 41.0006 20.0796 40.6126 18.2598 39.8588C17.1314 39.3914 16.0669 38.789 15.0889 38.0667C15.0187 38.1112 14.9476 38.1543 14.8755 38.1959C14.2736 38.5434 13.6166 38.7833 12.9339 38.9057C14.2946 40.0725 15.8334 41.0185 17.4944 41.7066C19.5569 42.5609 21.7675 43.0006 24 43.0006C26.2325 43.0006 28.4431 42.5609 30.5056 41.7066C32.1666 41.0185 33.7054 40.0725 35.0661 38.9057Z" fill="#FFD600"/>
</svg>
