<svg width="48" height="48" viewBox="0 0 48 48" fill="none" xmlns="http://www.w3.org/2000/svg">
<g clip-path="url(#clip0_1036_353)">
<rect width="48" height="48" fill="black"/>
<path d="M10.2857 0C4.60714 0 0 4.03125 0 9V39C0 43.9688 4.60714 48 10.2857 48H41.1429H44.5714C46.4679 48 48 46.6594 48 45C48 43.3406 46.4679 42 44.5714 42V36C46.4679 36 48 34.6594 48 33V3C48 1.34062 46.4679 0 44.5714 0H41.1429H10.2857ZM10.2857 36H37.7143V42H10.2857C8.38929 42 6.85714 40.6594 6.85714 39C6.85714 37.3406 8.38929 36 10.2857 36ZM13.7143 13.5C13.7143 12.675 14.4857 12 15.4286 12H36C36.9429 12 37.7143 12.675 37.7143 13.5C37.7143 14.325 36.9429 15 36 15H15.4286C14.4857 15 13.7143 14.325 13.7143 13.5ZM15.4286 18H36C36.9429 18 37.7143 18.675 37.7143 19.5C37.7143 20.325 36.9429 21 36 21H15.4286C14.4857 21 13.7143 20.325 13.7143 19.5C13.7143 18.675 14.4857 18 15.4286 18Z" fill="inherit"/>
</g>
<defs>
<clipPath id="clip0_1036_353">
<rect width="48" height="48" fill="inherit"/>
</clipPath>
</defs>
</svg>
